<?xml version="1.0" encoding="utf-8"?>
<!-- Generator: Adobe Illustrator 27.0.0, SVG Export Plug-In . SVG Version: 6.00 Build 0)  -->
<svg version="1.1" id="Layer_1" xmlns="http://www.w3.org/2000/svg" xmlns:xlink="http://www.w3.org/1999/xlink" x="0px" y="0px"
	 viewBox="0 0 406 306" style="enable-background:new 0 0 406 306;" xml:space="preserve">
<style type="text/css">
	.st0{opacity:0.24;fill:url(#SVGID_1_);enable-background:new    ;}
	.st1{fill:#68E1FD;}
	.st2{fill:url(#SVGID_00000116939529990736953330000013682480469721061770_);}
	.st3{fill:url(#SVGID_00000039096881563082359310000002341310092095420088_);}
	.st4{fill:url(#SVGID_00000096032448573561621910000006895163019502045105_);}
	.st5{fill:url(#SVGID_00000129172054485600933800000003953598800284423849_);}
	.st6{fill:url(#SVGID_00000067201671906197548410000018387010269272977825_);}
	.st7{fill:url(#SVGID_00000098211495731226232290000009389945209253476767_);}
	.st8{fill:url(#SVGID_00000129899436065255280020000011458997681840728752_);}
	.st9{fill:url(#SVGID_00000068669206943252131510000009734239936104837020_);}
	.st10{opacity:0.24;fill:#68E1FD;enable-background:new    ;}
	.st11{opacity:0.52;}
	.st12{fill:#FFFFFF;}
	.st13{opacity:0.24;}
	.st14{fill:url(#SVGID_00000067215860168138974210000004572421678524994724_);}
	.st15{fill:#606161;}
	.st16{fill:url(#SVGID_00000019636001238239181580000009065769234724188565_);}
	.st17{fill:url(#SVGID_00000105422479428693193590000012518486283965928615_);}
	.st18{fill:url(#SVGID_00000055699350689901844640000012255325596829043362_);}
	.st19{fill:url(#SVGID_00000090281673992548617730000007845088967271482540_);}
	.st20{fill:url(#SVGID_00000178169529454802749700000007681644202838816683_);}
	.st21{fill:url(#SVGID_00000114795934417570772440000010765320392597661849_);}
	.st22{fill:url(#SVGID_00000027572838094289964010000005934304338524055195_);}
	.st23{fill:url(#SVGID_00000078734629126987817600000006838892995426949019_);}
	.st24{fill:#D6C063;}
	.st25{fill:url(#SVGID_00000160159454644121893500000011540889603025354418_);}
	.st26{fill:url(#f4b94a19-cbe0-459a-95a6-6ea3b3d72055_00000115497449650608936520000010203025725144887687_);}
	.st27{fill:url(#abc0e0b3-f22e-4bee-9929-c6879640924e_00000066486858908069475520000011006704140940921761_);}
</style>
<radialGradient id="SVGID_1_" cx="203.0275" cy="153.0177" r="240.2968" fx="219.6811" fy="300.4215" gradientUnits="userSpaceOnUse">
	<stop  offset="0.1391" style="stop-color:#68E1FD"/>
	<stop  offset="0.3052" style="stop-color:#59BFD9"/>
	<stop  offset="0.6716" style="stop-color:#34697E"/>
	<stop  offset="1" style="stop-color:#111827"/>
</radialGradient>
<path class="st0" d="M388.8,213.3c-3.3,15.9-13.6,29.3-23.8,41.9c-12.5,15.4-25.9,30.9-43.5,40c-13.4,6.9-28.3,9.6-43.4,10.5
	c-5.3,0.3-10.6,0.4-15.9,0.3c-5.8,0-11.7-0.2-17.5-0.4c-16.5-0.6-33-1.2-49.5-1.8c-27.3-1-54.6-1.9-81.8-2.9
	c-11.8-0.4-23.6-0.8-35.4-1.2c-11.8-0.4-24.1-0.9-34.7-6.3c-16.7-8.5-25.7-27.8-27-46.6c-1.3-18.7,3.9-37.2,9-55.3
	c5.1-17.9,10.1-35.8,15.2-53.7c2.5-8.8,5-17.6,7.5-26.4c7.1-24.8,18.6-59.1,35.6-79c11.5-13.3,29-19.9,46-24.2
	c21-5.3,42.6-8.1,64.3-8.2c23.4-0.1,48.1,3.4,66.2,18.2C284,37.6,284.6,65,294.3,91.6c9.2,25.1,40.3,24.3,60,38.1
	c10.2,7.2,17.3,17.9,23.1,29C386.2,175.5,392.7,194.7,388.8,213.3z"/>
<path class="st1" d="M297.9,222.2c0.3-10.3-1.6-20.6-2.2-30.9c-20.6,15.4-35,37.8-40.5,63c-0.7,3.5-1.3,7.1-0.9,10.7
	c0.6,5.2,5.5,14.8,11.6,15.5c5.5,0.6,13-10,16.2-14.2C291.8,253.6,297.5,238,297.9,222.2z"/>
<linearGradient id="SVGID_00000050651913238767430090000006765523924713421496_" gradientUnits="userSpaceOnUse" x1="-6786.2012" y1="-77.7493" x2="-6726.731" y2="-267.4993" gradientTransform="matrix(-0.5155 -0.2051 0.2051 -0.5155 -3190.6926 -1209.3237)">
	<stop  offset="0" style="stop-color:#010101;stop-opacity:0"/>
	<stop  offset="0.95" style="stop-color:#010101"/>
</linearGradient>
<path style="fill:url(#SVGID_00000050651913238767430090000006765523924713421496_);" d="M297.5,222.3c0.3-10.3-1.6-20.6-2.2-30.9
	c-20.6,15.4-35,37.8-40.5,63c-0.8,3.5-1.3,7.1-0.9,10.7c0.6,5.2,5.5,14.8,11.6,15.5c5.5,0.6,13-10,16.2-14.2
	C291.4,253.8,297.1,238.2,297.5,222.3z"/>
<linearGradient id="SVGID_00000136391946595078941130000011403428437418087061_" gradientUnits="userSpaceOnUse" x1="-6804.2573" y1="-80.2081" x2="-6637.1572" y2="-282.978" gradientTransform="matrix(-0.5155 -0.2051 0.2051 -0.5155 -3190.6926 -1209.3237)">
	<stop  offset="0" style="stop-color:#010101;stop-opacity:0"/>
	<stop  offset="0.95" style="stop-color:#010101"/>
</linearGradient>
<path style="fill:url(#SVGID_00000136391946595078941130000011403428437418087061_);" d="M286.2,232.9c0.1-5.4-0.8-10.7-1.1-16
	c-10.7,8-18.2,19.6-21,32.7c-0.5,1.8-0.6,3.7-0.5,5.5c0.3,2.7,2.8,7.7,6,8c2.9,0.3,6.8-5.2,8.4-7.4
	C283.1,249.2,286,241.2,286.2,232.9z"/>
<path class="st1" d="M309,286c2.4-7.8,3.5-16.1,8.3-22.6c6.3-8.7,18.1-13,22.1-22.9c2-4.9,1.7-10.5,0.7-15.7
	c-0.2-1.3-0.6-2.6-1.3-3.8c-1.5-2.2-4.5-3.1-7.1-2.6s-4.9,2.2-6.7,4.1c-6.4,6.8-8.3,17-15,23.4c-7,6.8-17.8,8.1-25.3,14.3
	c-7,5.7-16.3,31.9-14.3,40.6c1.7,7.7,14.7,0,22.8,1.9C301.6,304.7,306.9,292.7,309,286z"/>
<linearGradient id="SVGID_00000084503588288098054770000000985604249115426491_" gradientUnits="userSpaceOnUse" x1="-6864.5229" y1="-118.0197" x2="-6622.6729" y2="-249.6297" gradientTransform="matrix(-0.5155 -0.2051 0.2051 -0.5155 -3190.6926 -1209.3237)">
	<stop  offset="0" style="stop-color:#010101;stop-opacity:0"/>
	<stop  offset="0.95" style="stop-color:#010101"/>
</linearGradient>
<path style="fill:url(#SVGID_00000084503588288098054770000000985604249115426491_);" d="M309,286c2.4-7.8,3.5-16.1,8.3-22.6
	c6.3-8.7,18.1-13,22.1-22.9c2-4.9,1.7-10.5,0.7-15.7c-0.2-1.3-0.6-2.6-1.3-3.8c-1.5-2.2-4.5-3.1-7.1-2.6s-4.9,2.2-6.7,4.1
	c-6.4,6.8-8.3,17-15,23.4c-7,6.8-17.8,8.1-25.3,14.3c-7,5.7-17.7,32.1-15.8,40.8c1.7,7.7,16.2-0.2,24.3,1.7
	C301.6,304.7,306.9,292.7,309,286z"/>
<linearGradient id="SVGID_00000054250995455120622490000015041917177629937314_" gradientUnits="userSpaceOnUse" x1="-6885.7124" y1="-121.3437" x2="-6619.4927" y2="-216.4937" gradientTransform="matrix(-0.5155 -0.2051 0.2051 -0.5155 -3190.6926 -1209.3237)">
	<stop  offset="0" style="stop-color:#010101;stop-opacity:0"/>
	<stop  offset="0.95" style="stop-color:#010101"/>
</linearGradient>
<path style="fill:url(#SVGID_00000054250995455120622490000015041917177629937314_);" d="M306.5,268.1c7-9.9,19.2-16.6,22-28.3
	c0.4-1.8,0.4-4.1-1.2-5c-2.1-1.2-4.5,1-5.9,3c-2.4,3.4-5,6.7-8.3,9.3c-5.9,4.7-13.6,6.7-19.8,11c-8.4,5.7-14.7,16.4-14.1,26.8
	c0.3,4.2,2.3,9,6.9,9.6c4.9,0.7,7.9-3.9,10.1-7.5C300.1,280.9,302.3,274,306.5,268.1z"/>
<path class="st1" d="M303.3,241.5c0.5,5.7,0.8,11.5,1,17.3c0.2,7,0.1,14.2-2.2,20.8c-4.1,11.5-14.5,19.8-25.8,24.6
	c-1.8-8.4-4-16.7-6.3-24.9c-1.6-5.7-3-9.4,0-14.7c3.3-5.8,8.6-11,14-14.8C285.4,248.8,303.2,240.2,303.3,241.5z"/>
<linearGradient id="SVGID_00000047776069254992735080000008218795483685743488_" gradientUnits="userSpaceOnUse" x1="-5746.7939" y1="-3093.4038" x2="-5521.8838" y2="-3151.9539" gradientTransform="matrix(-0.5321 0.1607 -0.1607 -0.5321 -3252.5339 -454.8466)">
	<stop  offset="0" style="stop-color:#010101;stop-opacity:0"/>
	<stop  offset="0.95" style="stop-color:#010101"/>
</linearGradient>
<path style="fill:url(#SVGID_00000047776069254992735080000008218795483685743488_);" d="M293.6,256c0.4,4.8,0.7,9.5,0.8,14.3
	c0.2,5.8,0.1,11.8-1.8,17.3c-3.4,9.6-11.9,13.7-21.2,17.7c-1.5-7-3.4-11.1-5.4-17.9c-1.4-4.7-2.5-7.8,0-12.2
	c2.8-4.8,7.1-9.1,11.6-12.3C278.7,262,293.5,255,293.6,256z"/>
<path class="st1" d="M278.1,304.4l-82.7-1.3l-0.2-88c0-22.8,18.5-41.3,41.3-41.3h0.2c22.8,0,41.3,18.5,41.3,41.3l0,0v89.3
	L278.1,304.4L278.1,304.4z"/>
<linearGradient id="SVGID_00000019669586721541006370000015100504482667053972_" gradientUnits="userSpaceOnUse" x1="2259.7383" y1="-1833.1129" x2="2050.9285" y2="-2131.083" gradientTransform="matrix(0.5543 0 0 -0.5543 -997.7476 -788.4754)">
	<stop  offset="0" style="stop-color:#010101;stop-opacity:0"/>
	<stop  offset="0.95" style="stop-color:#010101"/>
</linearGradient>
<path style="fill:url(#SVGID_00000019669586721541006370000015100504482667053972_);" d="M278.1,215.2v90.4
	c-5.3,0.3-10.6,0.4-15.9,0.3c-5.8,0-11.7-0.2-17.5-0.4c-16.5-0.6-33-1.2-49.5-1.8v-88.6c-0.3-22.9,18.1-41.7,41-41.9
	c22.9-0.3,41.7,18.1,41.9,41C278.1,214.6,278.1,214.9,278.1,215.2z"/>
<path class="st1" d="M94.8,257.3c-1.4-4-1.9-8.2-3.1-12.3c-1.3-4-3.5-8-7.2-10s-9.1-1.3-11.2,2.4c-0.8,1.6-1.1,3.4-0.8,5.2
	c0.7,6.2,5.9,11.1,7.3,17.3c0.8,3.6,0.2,7.5,0.8,11.2c0.8,5.2,3.8,9.9,8.2,12.8c2.5,1.6,5.3,2.6,7.9,4.2c3.3,2,6.1,5,7.9,8.4
	c4.3-3.9,6.6-9.4,6.4-15.2C110.2,268.9,98.3,267.6,94.8,257.3z"/>
<linearGradient id="SVGID_00000166645641309425617590000008316107864783762315_" gradientUnits="userSpaceOnUse" x1="1951.9763" y1="-1895.2858" x2="2042.6063" y2="-1927.0059" gradientTransform="matrix(0.5543 0 0 -0.5543 -997.7476 -788.4754)">
	<stop  offset="0" style="stop-color:#010101;stop-opacity:0"/>
	<stop  offset="0.95" style="stop-color:#010101"/>
</linearGradient>
<path style="fill:url(#SVGID_00000166645641309425617590000008316107864783762315_);" d="M94.8,257.3c-1.4-4-1.9-8.2-3.1-12.3
	c-1.3-4-3.5-8-7.2-10s-9.1-1.3-11.2,2.4c-0.8,1.6-1.1,3.4-0.8,5.2c0.7,6.2,5.9,11.1,7.3,17.3c0.8,3.6,0.2,7.5,0.8,11.2
	c0.8,5.2,3.8,9.9,8.2,12.8c2.5,1.6,5.3,2.6,7.9,4.2c3.3,2,6.1,5,7.9,8.4c4.3-3.9,6.6-9.4,6.4-15.2
	C110.2,268.9,98.3,267.6,94.8,257.3z"/>
<path class="st1" d="M109.1,235.1c-0.6-2.6-0.5-5.4-1.3-7.9s-2.8-5-5.4-5.3c-3.1-0.3-5.7,2.5-6.4,5.6s0.3,6.1,1.1,9.1l3.4,11.6
	c1.1,3.6,1.7,8.4-1.5,10.3c-0.8,0.4-1.6,0.7-2.4,1c-2.7,1.3-4.5,4.1-4.4,7.1c0.2,3.7,2.9,6.6,5.4,9.4c2.4,2.8,4.8,6.3,3.8,9.8
	c-0.7,2.6-3.1,4.9-2.6,7.6c0.4,2.2,2.8,3.6,5.1,3.6c2.3,0,4.4-1,6.4-2l9.7-4.7c3.1-1.5,6.4-3.2,8.3-6.1c1.3-2,1.7-4.3,2-6.7
	c0.8-8.9-1.6-17.7-6.7-25C118.8,246,111,244.2,109.1,235.1z"/>
<linearGradient id="SVGID_00000129924298921474391130000001953017373117373094_" gradientUnits="userSpaceOnUse" x1="1973.024" y1="-1886.0007" x2="2170.7041" y2="-1957.9307" gradientTransform="matrix(0.5543 0 0 -0.5543 -997.7476 -788.4754)">
	<stop  offset="0" style="stop-color:#010101;stop-opacity:0"/>
	<stop  offset="0.95" style="stop-color:#010101"/>
</linearGradient>
<path style="fill:url(#SVGID_00000129924298921474391130000001953017373117373094_);" d="M109.1,235.1c-0.6-2.6-0.5-5.4-1.3-7.9
	s-2.8-5-5.4-5.3c-3.1-0.3-5.7,2.5-6.4,5.6s0.3,6.1,1.1,9.1l3.4,11.6c1.1,3.6,1.7,8.4-1.5,10.3c-0.8,0.4-1.6,0.7-2.4,1
	c-2.7,1.3-4.5,4.1-4.4,7.1c0.2,3.7,2.9,6.6,5.4,9.4c2.4,2.8,4.8,6.3,3.8,9.8c-0.7,2.6-3.1,4.9-2.6,7.6c0.4,2.2,2.8,3.6,5.1,3.6
	c2.3,0,4.4-1,6.4-2l9.7-4.7c3.1-1.5,6.4-3.2,8.3-6.1c1.3-2,1.7-4.3,2-6.7c0.8-8.9-1.6-17.7-6.7-25C118.8,246,111,244.2,109.1,235.1z
	"/>
<path class="st10" d="M256,221.3h-81.6c-7.9,0-14.2-6.4-14.2-14.2V154c0-7.9,6.4-14.2,14.2-14.2H256c7.9,0,14.2,6.4,14.2,14.2v53.1
	C270.3,214.9,263.9,221.3,256,221.3z"/>
<g class="st11">
	<rect x="172.5" y="160.8" class="st12" width="29.4" height="2.2"/>
	<rect x="172.5" y="165" class="st12" width="18" height="2"/>
	<rect x="197.7" y="165" class="st12" width="56.6" height="2"/>
	<rect x="181.8" y="169.2" class="st12" width="24.7" height="2.1"/>
	<rect x="189.7" y="173.3" class="st12" width="29.4" height="2.2"/>
	<rect x="221.1" y="173.3" class="st12" width="24.7" height="2.4"/>
	<rect x="189.7" y="177.5" class="st12" width="22.7" height="2"/>
	<rect x="214.6" y="177.5" class="st12" width="46.9" height="2.2"/>
	<rect x="172.5" y="183.2" class="st12" width="29.4" height="2.2"/>
	<rect x="172.5" y="187.4" class="st12" width="18" height="2"/>
	<rect x="197.7" y="187.4" class="st12" width="56.6" height="2"/>
	<rect x="181.8" y="191.5" class="st12" width="24.7" height="2.1"/>
	<rect x="189.7" y="195.7" class="st12" width="29.4" height="2.2"/>
	<rect x="221.1" y="195.7" class="st12" width="24.7" height="2.4"/>
	<rect x="189.7" y="199.9" class="st12" width="22.7" height="2"/>
	<rect x="214.6" y="199.9" class="st12" width="46.9" height="2.2"/>
</g>
<path class="st12" d="M295.4,150.8h-54c-5.2,0-9.4-4.2-9.4-9.4v-35.2c0-5.2,4.2-9.4,9.4-9.4h54c5.2,0,9.4,4.2,9.4,9.4v35.2
	C304.8,146.6,300.6,150.8,295.4,150.8z"/>
<g class="st11">
	<rect x="240.1" y="110.7" class="st1" width="19.5" height="1.4"/>
	<rect x="240.1" y="113.5" class="st1" width="11.9" height="1.3"/>
	<rect x="256.8" y="113.5" class="st1" width="37.4" height="1.4"/>
	<rect x="246.3" y="116.3" class="st1" width="16.4" height="1.4"/>
	<rect x="251.5" y="119" class="st1" width="19.5" height="1.4"/>
	<rect x="272.3" y="119" class="st1" width="16.3" height="1.6"/>
	<rect x="251.5" y="121.8" class="st1" width="15" height="1.3"/>
	<rect x="268" y="121.8" class="st1" width="31.1" height="1.5"/>
	<rect x="240.1" y="125.5" class="st1" width="19.5" height="1.4"/>
	<rect x="240.1" y="128.3" class="st1" width="11.9" height="1.3"/>
	<rect x="256.8" y="128.3" class="st1" width="37.4" height="1.4"/>
	<rect x="246.3" y="131.1" class="st1" width="16.4" height="1.4"/>
	<rect x="251.5" y="133.8" class="st1" width="19.5" height="1.4"/>
	<rect x="272.3" y="133.8" class="st1" width="16.3" height="1.6"/>
	<rect x="251.5" y="136.6" class="st1" width="15" height="1.3"/>
	<rect x="268" y="136.6" class="st1" width="31.1" height="1.5"/>
</g>
<path class="st12" d="M119,201.4H65.9c-5.1,0-9.3-4.1-9.3-9.3v-34.6c0-5.1,4.1-9.3,9.3-9.3H119c5.1,0,9.3,4.1,9.3,9.3v34.6
	C128.3,197.2,124.1,201.4,119,201.4z"/>
<g class="st11">
	<rect x="64.6" y="162" class="st1" width="19.2" height="1.4"/>
	<rect x="64.6" y="164.7" class="st1" width="11.7" height="1.3"/>
	<rect x="81" y="164.7" class="st1" width="36.8" height="1.3"/>
	<rect x="70.7" y="167.4" class="st1" width="16.1" height="1.4"/>
	<rect x="75.8" y="170.1" class="st1" width="19.2" height="1.4"/>
	<rect x="96.2" y="170.1" class="st1" width="16.1" height="1.6"/>
	<rect x="75.8" y="172.9" class="st1" width="14.8" height="1.3"/>
	<rect x="92" y="172.9" class="st1" width="30.6" height="1.5"/>
	<rect x="64.6" y="176.6" class="st1" width="19.2" height="1.4"/>
	<rect x="64.6" y="179.3" class="st1" width="11.7" height="1.3"/>
	<rect x="81" y="179.3" class="st1" width="36.8" height="1.3"/>
	<rect x="70.7" y="182" class="st1" width="16.1" height="1.4"/>
	<rect x="75.8" y="184.7" class="st1" width="19.2" height="1.4"/>
	<rect x="96.2" y="184.7" class="st1" width="16.1" height="1.6"/>
	<rect x="75.8" y="187.4" class="st1" width="14.8" height="1.3"/>
	<rect x="92" y="187.4" class="st1" width="30.6" height="1.5"/>
</g>
<g class="st13">
	<path class="st1" d="M210.6,75.6v43.7c0,5.4-4.3,9.7-9.7,9.7h-46.1l-13.6,13.6L130.6,129H83.4c-5.3,0-9.7-4.3-9.7-9.7l0,0V75.6
		c0-5.3,4.3-9.7,9.7-9.7h117.5C206.2,65.9,210.6,70.3,210.6,75.6z"/>
</g>
<path class="st12" d="M83.4,60.1h117.5c5.4,0,9.7,4.3,9.7,9.7v43.7c0,5.4-4.3,9.7-9.7,9.7H83.4c-5.4,0-9.7-4.3-9.7-9.7V69.8
	C73.7,64.5,78,60.1,83.4,60.1z"/>
<polygon class="st12" points="128.4,120.7 141.2,137 156.8,121.4 "/>
<path class="st1" d="M262.1,264.3V306c-5.8,0-11.7-0.2-17.5-0.4c-43.8-1.5-87.6-3.1-131.4-4.7v-36.6c0-25.6,20.8-46.4,46.4-46.4
	h56.1C241.4,217.9,262.1,238.7,262.1,264.3z"/>
<linearGradient id="SVGID_00000072959613862883412160000007885757278877806488_" gradientUnits="userSpaceOnUse" x1="2063.6321" y1="-1840.6366" x2="2044.3721" y2="-1776.0665" gradientTransform="matrix(0.5543 0 0 -0.5543 -997.7476 -788.4754)">
	<stop  offset="0" style="stop-color:#010101;stop-opacity:0"/>
	<stop  offset="0.95" style="stop-color:#010101"/>
</linearGradient>
<path style="fill:url(#SVGID_00000072959613862883412160000007885757278877806488_);" d="M146.6,229.8c5.9-0.6,12.1-1.8,16.4-5.8
	c1-0.9,2-2.4,1.4-3.6c-0.5-1.1-2-1.4-3.2-1.5c-9-0.7-18,1.5-26.5,4.6c-3.1,1.2-6.5,2.6-8.6,5.3c-1.5,1.8-2.5,6,1.2,6
	c1.3,0,2.8-1.4,4-1.9c1.6-0.7,3.2-1.2,4.9-1.6C139.6,230.5,143.2,230.2,146.6,229.8z"/>
<path class="st15" d="M143.7,211.9l-7.7-1.3c0,0-20.6,8.3-22.6,11.3s-3.1,25.1-3.1,25.1s-4.2,3.6-3.4,4.7c0.8,1.1,8-3.2,8-3.2
	l5.6-17.1l32.4-18.4L143.7,211.9z"/>
<linearGradient id="SVGID_00000134223615561891381330000012564111190001575348_" gradientUnits="userSpaceOnUse" x1="1992.6006" y1="-1839.6453" x2="2075.771" y2="-1839.6453" gradientTransform="matrix(0.5543 0 0 -0.5543 -997.7476 -788.4754)">
	<stop  offset="0" style="stop-color:#010101;stop-opacity:0"/>
	<stop  offset="0.95" style="stop-color:#010101"/>
</linearGradient>
<path style="fill:url(#SVGID_00000134223615561891381330000012564111190001575348_);" d="M143.7,211.9l-7.7-1.3
	c0,0-20.6,8.3-22.6,11.3s-3.1,25.1-3.1,25.1s-4.2,3.6-3.4,4.7c0.8,1.1,8-3.2,8-3.2l5.6-17.1l32.4-18.4L143.7,211.9z"/>
<linearGradient id="SVGID_00000072239530433962134160000000718538045801010588_" gradientUnits="userSpaceOnUse" x1="2030.9971" y1="-1781.9441" x2="2052.2471" y2="-1781.9441" gradientTransform="matrix(0.5543 0 0 -0.5543 -997.7476 -788.4754)">
	<stop  offset="0" style="stop-color:#FFD47F"/>
	<stop  offset="0.42" style="stop-color:#EAD4D0"/>
	<stop  offset="1" style="stop-color:#FFC792"/>
</linearGradient>
<path style="fill:url(#SVGID_00000072239530433962134160000000718538045801010588_);" d="M135.4,198.5c-0.9,0.9-2.2,1.2-3.3,1.9
	c-1,0.7-2.1,1.2-3,2s-1.3,2-1.1,3.2c0,0.2,0.1,0.3,0.2,0.4c0.2,0.1,0.4,0.1,0.6,0c1-0.4,2-1,2.9-1.7c0.1-0.1,0.3-0.1,0.4-0.1
	c0.2,0.1,0.2,0.3,0.3,0.4c0.2,0.2,0.6,0.2,0.8,0l0,0c0.2-0.2,0.4-0.5,0.4-0.7c0.7-1.6,3-1.7,4.5-1.6c1.9,0.2,1.3-0.7,1.5-1
	c0.3-0.2-1.5-1.2-1.4-1.6c0.6-1.7,0.9-3.4,1-5.2c0-0.5,0-1-0.2-1.4c-1-2-1.8,1.1-2,1.8C136.8,196.2,136.4,197.6,135.4,198.5z"/>
<path class="st12" d="M137,191.7c-0.1,0.2-0.1,0.5,0,0.7s0.2,0.3,0.4,0.5c0.7,0.5,1.4,0.8,2.2,1c0.2,0.1,0.5,0.1,0.7,0.1
	c0.4-0.1,0.8-0.3,1.1-0.7c1.4-1.6,2.3-3.7,2.5-5.9c0.1-1,0.4-4.5-0.4-5.3c-0.9-0.8-2.1,1-2.7,1.8C139.1,186.3,137.7,188.9,137,191.7
	z"/>
<path class="st12" d="M141.7,184.7c-2.3,5.7-3.3,11.9-3.3,18c0,2-2.9,6.9-1.3,8.1c0.9,0.7,1,0.7,2.2,0.9c2.8,0.4,12.2,6.2,14.9,5.7
	s5.3-16.4,5.3-18.6c-0.1-6-0.6-13.2-5.3-17.6c-1.8-1.7-4.1-3.7-6.7-2.9C144.5,179.1,142.8,181.9,141.7,184.7z"/>
<linearGradient id="SVGID_00000105413239216663671510000013513493001395955366_" gradientUnits="userSpaceOnUse" x1="2059.1987" y1="-1745.6709" x2="2066.6189" y2="-1745.6709" gradientTransform="matrix(0.5543 0 0 -0.5543 -997.7476 -788.4754)">
	<stop  offset="0" style="stop-color:#FFD47F"/>
	<stop  offset="0.42" style="stop-color:#E9C789"/>
	<stop  offset="1" style="stop-color:#FFC792"/>
</linearGradient>
<path style="fill:url(#SVGID_00000105413239216663671510000013513493001395955366_);" d="M144.3,181.9c0,0.4,0,1,0.4,1.2
	c0.2,0.1,0.3,0.1,0.5,0.1c0.7-0.2,1.4-0.7,1.7-1.3c0.7-1.1,1-2.3,0.8-3.6c-0.2-1.1-0.7-2.1-1.5-2.9c-0.2-0.2-0.5-0.3-0.7-0.3
	s-0.3,0.1-0.4,0.2c-0.5,0.4-0.9,0.8-1.2,1.3s-0.1,0.8,0,1.4C144.2,179.2,144.3,180.5,144.3,181.9z"/>
<polygon class="st1" points="110.8,197.4 120.3,211.4 131,217.6 144.2,211.5 141.3,209.7 132.5,203.4 125.3,206.9 123.2,203.1 "/>
<linearGradient id="SVGID_00000083787822354234225620000001155382346826247334_" gradientUnits="userSpaceOnUse" x1="1816.9052" y1="-2272.5796" x2="1778.5052" y2="-2286.5396" gradientTransform="matrix(0.5504 -6.495502e-02 -6.495502e-02 -0.5504 -1008.8373 -926.8043)">
	<stop  offset="0" style="stop-color:#010101;stop-opacity:0"/>
	<stop  offset="0.95" style="stop-color:#010101"/>
</linearGradient>
<path style="fill:url(#SVGID_00000083787822354234225620000001155382346826247334_);" d="M125.3,206.9c0,0,5.5,7.9,5.5,8.1
	c0,0.3,10.6-4.4,10.6-4.4l-9-7.2L125.3,206.9z"/>
<linearGradient id="SVGID_00000066511666413522373780000003457201638430609796_" gradientUnits="userSpaceOnUse" x1="2061.564" y1="-1778.6289" x2="2198.6641" y2="-1813.6589" gradientTransform="matrix(0.5543 0 0 -0.5543 -997.7476 -788.4754)">
	<stop  offset="0" style="stop-color:#010101;stop-opacity:0"/>
	<stop  offset="0.95" style="stop-color:#010101"/>
</linearGradient>
<path style="fill:url(#SVGID_00000066511666413522373780000003457201638430609796_);" d="M149.1,186.5c0,0-1.6,9.6-1.2,10.3
	c0.4,0.7,2.5,1.6,2.5,1.6s-0.7,3.8-5.6,4.7s-3.9,4.9-3.9,4.9s2.6,1.8,7.4,1.2c4.8-0.6,7.2-0.7,8.4-2.5s1.9-8.9,1.1-11.7
	C157,192.3,149.1,186.5,149.1,186.5z"/>
<linearGradient id="SVGID_00000065054240561851998950000004893238783609637785_" gradientUnits="userSpaceOnUse" x1="2036.5276" y1="-1783.8246" x2="2085.2825" y2="-1783.8246" gradientTransform="matrix(0.5543 0 0 -0.5543 -997.7476 -788.4754)">
	<stop  offset="0" style="stop-color:#FFD47F"/>
	<stop  offset="0.42" style="stop-color:#E9C789"/>
	<stop  offset="1" style="stop-color:#FFC792"/>
</linearGradient>
<path style="fill:url(#SVGID_00000065054240561851998950000004893238783609637785_);" d="M150.5,201.1c-1.8,1.7-4.3,2.5-6.8,3
	c-2.1,0.4-4.2,0.7-6.3,0.9c-1.5,0.1-3,0.2-4.3,0.9s-2.4,2.1-2,3.5c4.9-0.3,9.8-0.6,14.7-0.9c2.6-0.2,5.2-0.4,7.7-1.2
	c1.7-0.6,3.5-1.6,4.1-3.3c0.2-0.7,0.4-1.4,0.4-2.1c0.1-1.8,0-3.6-0.1-5.4c0-1.2-0.2-2.4-0.7-3.5c-1.3-2.5-4.5-2.4-4.9,0.3
	C151.8,196.2,153.1,198.6,150.5,201.1z"/>
<path class="st12" d="M148.1,184.9l3.4,11.1c0,0,7.2-0.2,8-1.5c0.7-1.3-1.7-11.2-5.2-13.3C150.7,179.1,148.2,181.5,148.1,184.9z"/>
<path class="st15" d="M143.7,211.9l-25.5,13.6l-2,24c0,0-4,3.7-4,4.7c0,1.1,2.1,0.5,5.4-0.8c1.7-0.6,3.4-1.5,4.9-2.6l4.4-20.2
	c0,0,26.4-3.7,28.4-9.2c1.2-3.1,0.2-6.6-2.4-8.6L143.7,211.9z"/>
<linearGradient id="SVGID_00000016778566756725072470000011003232587775845274_" gradientUnits="userSpaceOnUse" x1="1793.9258" y1="-2285.1204" x2="1740.8859" y2="-2210.0002" gradientTransform="matrix(0.5504 -6.495502e-02 -6.495502e-02 -0.5504 -1008.8373 -926.8099)">
	<stop  offset="0" style="stop-color:#010101;stop-opacity:0"/>
	<stop  offset="0.95" style="stop-color:#010101"/>
</linearGradient>
<polygon style="fill:url(#SVGID_00000016778566756725072470000011003232587775845274_);" points="120.2,211.1 130.1,217 
	121.7,204.3 111.5,198.9 "/>
<linearGradient id="SVGID_00000041278067694997610730000001281865500592528795_" gradientUnits="userSpaceOnUse" x1="2060.5342" y1="-1733.1318" x2="2044.9442" y2="-1740.0018" gradientTransform="matrix(0.5543 0 0 -0.5543 -997.7476 -788.4754)">
	<stop  offset="5.025126e-03" style="stop-color:#FFD47F"/>
	<stop  offset="0.42" style="stop-color:#E9C789"/>
	<stop  offset="1" style="stop-color:#FFC792"/>
</linearGradient>
<path style="fill:url(#SVGID_00000041278067694997610730000001281865500592528795_);" d="M137.8,177.7c0.3,0.6,0.7,1.1,1.1,1.6
	c1.3,1.2,3.2,1.5,4.8,0.7c1.1-0.6,1.9-1.7,2.3-2.9c0.3-1.2,0.4-2.5,0.2-3.7c-0.2-1.8-1-3.4-2.3-4.6c-1-0.8-2.1-1.3-3.3-1.5
	c-0.6-0.2-1.2-0.2-1.8-0.1c-0.5,0.2-1.1,0.4-1.5,0.8c-0.5,0.3-1,0.7-1.4,1.2C133.8,171.3,136.7,175.7,137.8,177.7z"/>
<path class="st24" d="M144.6,173.2c0.2-0.2,0.4-0.4,0.3-0.7c0-0.3-0.1-0.6-0.1-0.8c0-0.1,0-0.2,0-0.2c0.1-0.2,0.5-0.1,0.7,0.1
	c0.4,0.6,0.2,1.3,0.2,2c0,0.5,0.2,1,0.6,1.4c0.9-2.3,0.6-4.9-0.7-6.9c-0.1-0.2-0.3-0.4-0.3-0.6c-0.1-0.5,0-0.9,0-1.4
	c-0.1-0.8-0.9-1.3-1.7-1.4c-0.8-0.1-1.6,0-2.4,0c-0.6,0-1.1-0.2-1.6-0.2c-0.6,0-1.2,0.1-1.7,0.2c-1.3,0.3-2.7,0.8-3.6,1.8
	c-1.1,1.2-1.4,2.9-1.5,4.6c0,0.9,0,2,0.7,2.6c0.6,0.4,1.2,0.6,1.9,0.5c0.7,0,1.4-0.3,2-0.7c0.5-0.6,0.9-1.3,1.2-2
	c0-0.1,0.1-0.1,0.2-0.2c0.1,0,0.2,0,0.2,0c0.5,0.1,1,0.2,1.6,0.3c0.5,0,1.1-0.2,1.5-0.6c0.1-0.1,0.1-0.1,0.2-0.2c0.1,0,0.1,0,0.2,0
	c0.5,0.2,1,0.4,1.5,0.7C144.2,172,144.4,172.6,144.6,173.2z"/>
<g class="st11">
	<rect x="83.8" y="69.4" class="st1" width="37.6" height="2.4"/>
	<rect x="83.8" y="74" class="st1" width="23" height="2.2"/>
	<rect x="116.1" y="74" class="st1" width="72.3" height="2.2"/>
	<rect x="95.8" y="78.6" class="st1" width="31.6" height="2.3"/>
	<rect x="105.9" y="83.2" class="st1" width="37.6" height="2.4"/>
	<rect x="146" y="83.2" class="st1" width="31.5" height="2.6"/>
	<rect x="105.9" y="87.8" class="st1" width="29.1" height="2.2"/>
	<rect x="137.7" y="87.8" class="st1" width="60" height="2.5"/>
	<rect x="83.8" y="94" class="st1" width="37.6" height="2.4"/>
	<rect x="83.8" y="98.6" class="st1" width="23" height="2.2"/>
	<rect x="116.1" y="98.6" class="st1" width="72.3" height="2.2"/>
	<rect x="95.8" y="103.2" class="st1" width="31.6" height="2.3"/>
	<rect x="105.9" y="107.8" class="st1" width="37.6" height="2.4"/>
	<rect x="146" y="107.8" class="st1" width="31.5" height="2.6"/>
	<rect x="105.9" y="112.4" class="st1" width="29.1" height="2.2"/>
	<rect x="137.7" y="112.4" class="st1" width="60" height="2.5"/>
</g>
<linearGradient id="SVGID_00000151541766177133192190000006142766178223735940_" gradientUnits="userSpaceOnUse" x1="2243.0361" y1="-1487.5117" x2="2235.5142" y2="-1462.2939" gradientTransform="matrix(0.5389 0.1298 0.1298 -0.5389 -840.0558 -869.12)">
	<stop  offset="0" style="stop-color:#010101;stop-opacity:0"/>
	<stop  offset="0.95" style="stop-color:#010101"/>
</linearGradient>
<path style="fill:url(#SVGID_00000151541766177133192190000006142766178223735940_);" d="M175.7,222.7c1.3,0.1,2.7,0,3.9-1.3
	c0.3-0.3,0.6-0.8,0.6-1.2s-0.3-0.6-0.5-0.7c-1.8-0.7-3.9-0.4-5.9,0.3c-0.8,0.3-1.6,0.6-2.3,1.5c-0.5,0.6-1,2.1-0.3,2.2
	c0.3,0.1,0.7-0.4,1-0.5c0.4-0.2,0.8-0.3,1.2-0.3C174.1,222.6,174.9,222.7,175.7,222.7z"/>
<g id="f9b32178-6d95-472d-b482-6662972666de">
	
		<linearGradient id="f4b94a19-cbe0-459a-95a6-6ea3b3d72055_00000150062527924361091860000012008855115399152529_" gradientUnits="userSpaceOnUse" x1="176.4027" y1="88.8195" x2="176.4027" y2="94.4195" gradientTransform="matrix(1 0 0 -1 0 308)">
		<stop  offset="4.723715e-02" style="stop-color:#EBEBED"/>
		<stop  offset="0.1099" style="stop-color:#F6F6F7"/>
		<stop  offset="0.2044" style="stop-color:#FDFDFD"/>
		<stop  offset="0.42" style="stop-color:#FFFFFF"/>
		<stop  offset="1" style="stop-color:#FFFFFF"/>
	</linearGradient>
	
		<path id="f4b94a19-cbe0-459a-95a6-6ea3b3d72055" style="fill:url(#f4b94a19-cbe0-459a-95a6-6ea3b3d72055_00000150062527924361091860000012008855115399152529_);" d="
		M176.4,213.6c-1.5,0-2.7,1.2-2.7,2.8s1.2,2.8,2.7,2.8s2.7-1.2,2.7-2.8l0,0l0,0C179.2,214.9,177.9,213.6,176.4,213.6z M176.4,218.1
		c-0.9,0-1.7-0.8-1.7-1.7s0.8-1.7,1.7-1.7s1.7,0.8,1.7,1.7l0,0l0,0C178.1,217.3,177.4,218.1,176.4,218.1z"/>
	
		<linearGradient id="abc0e0b3-f22e-4bee-9929-c6879640924e_00000046307627897474187800000009101574537889359782_" gradientUnits="userSpaceOnUse" x1="171.1" y1="84.6195" x2="171.1" y2="96.5195" gradientTransform="matrix(1 0 0 -1 0 308)">
		<stop  offset="9.053898e-02" style="stop-color:#F7F7F7"/>
		<stop  offset="0.1822" style="stop-color:#FDFDFD"/>
		<stop  offset="0.42" style="stop-color:#FFFFFF"/>
		<stop  offset="1" style="stop-color:#FFFFFF"/>
	</linearGradient>
	
		<path id="abc0e0b3-f22e-4bee-9929-c6879640924e" style="fill:url(#abc0e0b3-f22e-4bee-9929-c6879640924e_00000046307627897474187800000009101574537889359782_);" d="
		M165.9,211.5h10.5V222c0,0.8-0.6,1.4-1.4,1.4l0,0h-7.8c-0.8,0-1.4-0.6-1.4-1.4l0,0L165.9,211.5L165.9,211.5z"/>
</g>
</svg>
