<?xml version="1.0" encoding="utf-8"?>
<!-- Generator: Adobe Illustrator 27.0.0, SVG Export Plug-In . SVG Version: 6.00 Build 0)  -->
<svg version="1.1" id="Layer_1" xmlns="http://www.w3.org/2000/svg" xmlns:xlink="http://www.w3.org/1999/xlink" x="0px" y="0px"
	 viewBox="0 0 406 306" style="enable-background:new 0 0 406 306;" xml:space="preserve">
<style type="text/css">
	.st0{opacity:0.24;fill:#68E1FD;enable-background:new    ;}
	.st1{fill:#68E1FD;}
	.st2{fill:url(#SVGID_1_);}
	.st3{fill:url(#SVGID_00000151532224062945929710000010563645706780858549_);}
	.st4{fill:url(#SVGID_00000000909897806224497160000011044614226329517502_);}
	.st5{fill:url(#SVGID_00000160180018200075122670000015147051780153747599_);}
	.st6{fill:url(#SVGID_00000018927796945955612110000007977217304016146861_);}
	.st7{fill:url(#SVGID_00000164475678103415942810000002132805969963306388_);}
	.st8{fill:url(#SVGID_00000005956348300757780140000018225029830527543474_);}
	.st9{fill:url(#SVGID_00000019671589672863926790000015800998422634501268_);}
	.st10{opacity:0.52;}
	.st11{fill:#FFFFFF;}
	.st12{opacity:0.24;}
	.st13{fill:url(#SVGID_00000092437595883468114560000014020350329369386158_);}
	.st14{fill:#606161;}
	.st15{fill:url(#SVGID_00000043444035478702019320000006081775374201907391_);}
	.st16{fill:url(#SVGID_00000049902445082499223400000018139994554774205118_);}
	.st17{fill:url(#SVGID_00000090978755020448111320000010145659564332147849_);}
	.st18{fill:url(#SVGID_00000018227477424534704510000010389301422541165461_);}
	.st19{fill:url(#SVGID_00000011026263750330307960000004917585109866594695_);}
	.st20{fill:url(#SVGID_00000156589806031620560790000001966648072256233871_);}
	.st21{fill:url(#SVGID_00000142150024844821821710000008851768892389720205_);}
	.st22{fill:url(#SVGID_00000120555782201355247920000014257734486250064827_);}
	.st23{fill:#D6C063;}
	.st24{fill:url(#SVGID_00000041256506380120405670000008696676987987803796_);}
	.st25{fill:url(#f4b94a19-cbe0-459a-95a6-6ea3b3d72055_00000040543303188285214730000017277799985582823848_);}
	.st26{fill:url(#abc0e0b3-f22e-4bee-9929-c6879640924e_00000082344289269649225610000004079013820975658150_);}
</style>
<path class="st0" d="M388.8,213.3c-3.3,15.9-13.6,29.3-23.8,41.9c-12.5,15.4-25.9,30.9-43.5,40c-13.4,6.9-28.3,9.6-43.4,10.5
	c-5.3,0.3-10.6,0.4-15.9,0.3c-5.8,0-11.7-0.2-17.5-0.4c-16.5-0.6-33-1.2-49.5-1.8c-27.3-1-54.6-1.9-81.8-2.9
	c-11.8-0.4-23.6-0.8-35.4-1.2c-11.8-0.4-24.1-0.9-34.7-6.3c-16.7-8.5-25.7-27.8-27-46.6c-1.3-18.7,3.9-37.2,9-55.3
	c5.1-17.9,10.1-35.8,15.2-53.7c2.5-8.8,5-17.6,7.5-26.4c7.1-24.8,18.6-59.1,35.6-79c11.5-13.3,29-19.9,46-24.2
	c21-5.3,42.6-8.1,64.3-8.2c23.4-0.1,48.1,3.4,66.2,18.2C284,37.6,284.6,65,294.3,91.6c9.2,25.1,40.3,24.3,60,38.1
	c10.2,7.2,17.3,17.9,23.1,29C386.2,175.5,392.7,194.7,388.8,213.3z"/>
<path class="st1" d="M297.9,222.2c0.3-10.3-1.6-20.6-2.2-30.9c-20.6,15.4-35,37.8-40.5,63c-0.7,3.5-1.3,7.1-0.9,10.7
	c0.6,5.2,5.5,14.8,11.6,15.5c5.5,0.6,13-10,16.2-14.2C291.8,253.6,297.5,238,297.9,222.2z"/>
<linearGradient id="SVGID_1_" gradientUnits="userSpaceOnUse" x1="-4506.8838" y1="629.0381" x2="-4447.4136" y2="818.7881" gradientTransform="matrix(-0.5155 -0.2051 -0.2051 0.5155 -1902.6351 -1026.0251)">
	<stop  offset="0" style="stop-color:#010101;stop-opacity:0"/>
	<stop  offset="0.95" style="stop-color:#010101"/>
</linearGradient>
<path class="st2" d="M297.5,222.3c0.3-10.3-1.6-20.6-2.2-30.9c-20.6,15.4-35,37.8-40.5,63c-0.8,3.5-1.3,7.1-0.9,10.7
	c0.6,5.2,5.5,14.8,11.6,15.5c5.5,0.6,13-10,16.2-14.2C291.4,253.8,297.1,238.2,297.5,222.3z"/>
<linearGradient id="SVGID_00000134942725764460968020000003666901724135634818_" gradientUnits="userSpaceOnUse" x1="-4524.9399" y1="631.4969" x2="-4357.8398" y2="834.2668" gradientTransform="matrix(-0.5155 -0.2051 -0.2051 0.5155 -1902.6351 -1026.0251)">
	<stop  offset="0" style="stop-color:#010101;stop-opacity:0"/>
	<stop  offset="0.95" style="stop-color:#010101"/>
</linearGradient>
<path style="fill:url(#SVGID_00000134942725764460968020000003666901724135634818_);" d="M286.2,232.9c0.1-5.4-0.8-10.7-1.1-16
	c-10.7,8-18.2,19.6-21,32.7c-0.5,1.8-0.6,3.7-0.5,5.5c0.3,2.7,2.8,7.7,6,8c2.9,0.3,6.8-5.2,8.4-7.4
	C283.1,249.2,286,241.2,286.2,232.9z"/>
<path class="st1" d="M309,286c2.4-7.8,3.5-16.1,8.3-22.6c6.3-8.7,18.1-13,22.1-22.9c2-4.9,1.7-10.5,0.7-15.7
	c-0.2-1.3-0.6-2.6-1.3-3.8c-1.5-2.2-4.5-3.1-7.1-2.6s-4.9,2.2-6.7,4.1c-6.4,6.8-8.3,17-15,23.4c-7,6.8-17.8,8.1-25.3,14.3
	c-7,5.7-16.3,31.9-14.3,40.6c1.7,7.7,14.7,0,22.8,1.9C301.6,304.7,306.9,292.7,309,286z"/>
<linearGradient id="SVGID_00000032620605930857365320000013972411757038556334_" gradientUnits="userSpaceOnUse" x1="-4585.2056" y1="669.3083" x2="-4343.3555" y2="800.9183" gradientTransform="matrix(-0.5155 -0.2051 -0.2051 0.5155 -1902.6351 -1026.0251)">
	<stop  offset="0" style="stop-color:#010101;stop-opacity:0"/>
	<stop  offset="0.95" style="stop-color:#010101"/>
</linearGradient>
<path style="fill:url(#SVGID_00000032620605930857365320000013972411757038556334_);" d="M309,286c2.4-7.8,3.5-16.1,8.3-22.6
	c6.3-8.7,18.1-13,22.1-22.9c2-4.9,1.7-10.5,0.7-15.7c-0.2-1.3-0.6-2.6-1.3-3.8c-1.5-2.2-4.5-3.1-7.1-2.6s-4.9,2.2-6.7,4.1
	c-6.4,6.8-8.3,17-15,23.4c-7,6.8-17.8,8.1-25.3,14.3c-7,5.7-17.7,32.1-15.8,40.8c1.7,7.7,16.2-0.2,24.3,1.7
	C301.6,304.7,306.9,292.7,309,286z"/>
<linearGradient id="SVGID_00000063591966401630190960000009387378571415112359_" gradientUnits="userSpaceOnUse" x1="-4606.395" y1="672.6324" x2="-4340.1753" y2="767.7824" gradientTransform="matrix(-0.5155 -0.2051 -0.2051 0.5155 -1902.6351 -1026.0251)">
	<stop  offset="0" style="stop-color:#010101;stop-opacity:0"/>
	<stop  offset="0.95" style="stop-color:#010101"/>
</linearGradient>
<path style="fill:url(#SVGID_00000063591966401630190960000009387378571415112359_);" d="M306.5,268.1c7-9.9,19.2-16.6,22-28.3
	c0.4-1.8,0.4-4.1-1.2-5c-2.1-1.2-4.5,1-5.9,3c-2.4,3.4-5,6.7-8.3,9.3c-5.9,4.7-13.6,6.7-19.8,11c-8.4,5.7-14.7,16.4-14.1,26.8
	c0.3,4.2,2.3,9,6.9,9.6c4.9,0.7,7.9-3.9,10.1-7.5C300.1,280.9,302.3,274,306.5,268.1z"/>
<path class="st1" d="M303.3,241.5c0.5,5.7,0.8,11.5,1,17.3c0.2,7,0.1,14.2-2.2,20.8c-4.1,11.5-14.5,19.8-25.8,24.6
	c-1.8-8.4-4-16.7-6.3-24.9c-1.6-5.7-3-9.4,0-14.7c3.3-5.8,8.6-11,14-14.8C285.4,248.8,303.2,240.2,303.3,241.5z"/>
<linearGradient id="SVGID_00000096051983388887174870000011573570660010401672_" gradientUnits="userSpaceOnUse" x1="-3889.5413" y1="2729.386" x2="-3664.6311" y2="2787.936" gradientTransform="matrix(-0.5321 0.1607 0.1607 0.5321 -2205.7922 -559.6132)">
	<stop  offset="0" style="stop-color:#010101;stop-opacity:0"/>
	<stop  offset="0.95" style="stop-color:#010101"/>
</linearGradient>
<path style="fill:url(#SVGID_00000096051983388887174870000011573570660010401672_);" d="M293.6,256c0.4,4.8,0.7,9.5,0.8,14.3
	c0.2,5.8,0.1,11.8-1.8,17.3c-3.4,9.6-11.9,13.7-21.2,17.7c-1.5-7-3.4-11.1-5.4-17.9c-1.4-4.7-2.5-7.8,0-12.2
	c2.8-4.8,7.1-9.1,11.6-12.3C278.7,262,293.5,255,293.6,256z"/>
<path class="st1" d="M278.1,304.4l-82.7-1.3l-0.2-88c0-22.8,18.5-41.3,41.3-41.3h0.2c22.8,0,41.3,18.5,41.3,41.3l0,0v89.3H278.1z"/>
<linearGradient id="SVGID_00000147201503320788416850000005991027923291453859_" gradientUnits="userSpaceOnUse" x1="1651.856" y1="1830.7391" x2="1443.046" y2="2128.7092" gradientTransform="matrix(0.5543 0 0 0.5543 -660.7984 -787.1596)">
	<stop  offset="0" style="stop-color:#010101;stop-opacity:0"/>
	<stop  offset="0.95" style="stop-color:#010101"/>
</linearGradient>
<path style="fill:url(#SVGID_00000147201503320788416850000005991027923291453859_);" d="M278.1,215.2v90.4
	c-5.3,0.3-10.6,0.4-15.9,0.3c-5.8,0-11.7-0.2-17.5-0.4c-16.5-0.6-33-1.2-49.5-1.8v-88.6c-0.3-22.9,18.1-41.7,41-41.9
	c22.9-0.3,41.7,18.1,41.9,41C278.1,214.6,278.1,214.9,278.1,215.2z"/>
<path class="st1" d="M94.8,257.3c-1.4-4-1.9-8.2-3.1-12.3c-1.3-4-3.5-8-7.2-10s-9.1-1.3-11.2,2.4c-0.8,1.6-1.1,3.4-0.8,5.2
	c0.7,6.2,5.9,11.1,7.3,17.3c0.8,3.6,0.2,7.5,0.8,11.2c0.8,5.2,3.8,9.9,8.2,12.8c2.5,1.6,5.3,2.6,7.9,4.2c3.3,2,6.1,5,7.9,8.4
	c4.3-3.9,6.6-9.4,6.4-15.2C110.2,268.9,98.3,267.6,94.8,257.3z"/>
<linearGradient id="SVGID_00000125581359472113815080000013693539041593824924_" gradientUnits="userSpaceOnUse" x1="1344.094" y1="1892.912" x2="1434.724" y2="1924.6321" gradientTransform="matrix(0.5543 0 0 0.5543 -660.7984 -787.1596)">
	<stop  offset="0" style="stop-color:#010101;stop-opacity:0"/>
	<stop  offset="0.95" style="stop-color:#010101"/>
</linearGradient>
<path style="fill:url(#SVGID_00000125581359472113815080000013693539041593824924_);" d="M94.8,257.3c-1.4-4-1.9-8.2-3.1-12.3
	c-1.3-4-3.5-8-7.2-10s-9.1-1.3-11.2,2.4c-0.8,1.6-1.1,3.4-0.8,5.2c0.7,6.2,5.9,11.1,7.3,17.3c0.8,3.6,0.2,7.5,0.8,11.2
	c0.8,5.2,3.8,9.9,8.2,12.8c2.5,1.6,5.3,2.6,7.9,4.2c3.3,2,6.1,5,7.9,8.4c4.3-3.9,6.6-9.4,6.4-15.2
	C110.2,268.9,98.3,267.6,94.8,257.3z"/>
<path class="st1" d="M109.1,235.1c-0.6-2.6-0.5-5.4-1.3-7.9s-2.8-5-5.4-5.3c-3.1-0.3-5.7,2.5-6.4,5.6s0.3,6.1,1.1,9.1l3.4,11.6
	c1.1,3.6,1.7,8.4-1.5,10.3c-0.8,0.4-1.6,0.7-2.4,1c-2.7,1.3-4.5,4.1-4.4,7.1c0.2,3.7,2.9,6.6,5.4,9.4c2.4,2.8,4.8,6.3,3.8,9.8
	c-0.7,2.6-3.1,4.9-2.6,7.6c0.4,2.2,2.8,3.6,5.1,3.6c2.3,0,4.4-1,6.4-2l9.7-4.7c3.1-1.5,6.4-3.2,8.3-6.1c1.3-2,1.7-4.3,2-6.7
	c0.8-8.9-1.6-17.7-6.7-25C118.8,246,111,244.2,109.1,235.1z"/>
<linearGradient id="SVGID_00000168820274123697478460000015837565023505068973_" gradientUnits="userSpaceOnUse" x1="1365.1417" y1="1883.627" x2="1562.8218" y2="1955.5569" gradientTransform="matrix(0.5543 0 0 0.5543 -660.7984 -787.1596)">
	<stop  offset="0" style="stop-color:#010101;stop-opacity:0"/>
	<stop  offset="0.95" style="stop-color:#010101"/>
</linearGradient>
<path style="fill:url(#SVGID_00000168820274123697478460000015837565023505068973_);" d="M109.1,235.1c-0.6-2.6-0.5-5.4-1.3-7.9
	s-2.8-5-5.4-5.3c-3.1-0.3-5.7,2.5-6.4,5.6s0.3,6.1,1.1,9.1l3.4,11.6c1.1,3.6,1.7,8.4-1.5,10.3c-0.8,0.4-1.6,0.7-2.4,1
	c-2.7,1.3-4.5,4.1-4.4,7.1c0.2,3.7,2.9,6.6,5.4,9.4c2.4,2.8,4.8,6.3,3.8,9.8c-0.7,2.6-3.1,4.9-2.6,7.6c0.4,2.2,2.8,3.6,5.1,3.6
	c2.3,0,4.4-1,6.4-2l9.7-4.7c3.1-1.5,6.4-3.2,8.3-6.1c1.3-2,1.7-4.3,2-6.7c0.8-8.9-1.6-17.7-6.7-25C118.8,246,111,244.2,109.1,235.1z
	"/>
<path class="st0" d="M256,221.3h-81.6c-7.9,0-14.2-6.4-14.2-14.2V154c0-7.9,6.4-14.2,14.2-14.2H256c7.9,0,14.2,6.4,14.2,14.2v53.1
	C270.3,214.9,263.9,221.3,256,221.3z"/>
<g class="st10">
	<rect x="172.5" y="160.8" class="st11" width="29.4" height="2.2"/>
	<rect x="172.5" y="165" class="st11" width="18" height="2"/>
	<rect x="197.7" y="165" class="st11" width="56.6" height="2"/>
	<rect x="181.8" y="169.2" class="st11" width="24.7" height="2.1"/>
	<rect x="189.7" y="173.3" class="st11" width="29.4" height="2.2"/>
	<rect x="221.1" y="173.3" class="st11" width="24.7" height="2.4"/>
	<rect x="189.7" y="177.5" class="st11" width="22.7" height="2"/>
	<rect x="214.6" y="177.5" class="st11" width="46.9" height="2.2"/>
	<rect x="172.5" y="183.2" class="st11" width="29.4" height="2.2"/>
	<rect x="172.5" y="187.4" class="st11" width="18" height="2"/>
	<rect x="197.7" y="187.4" class="st11" width="56.6" height="2"/>
	<rect x="181.8" y="191.5" class="st11" width="24.7" height="2.1"/>
	<rect x="189.7" y="195.7" class="st11" width="29.4" height="2.2"/>
	<rect x="221.1" y="195.7" class="st11" width="24.7" height="2.4"/>
	<rect x="189.7" y="199.9" class="st11" width="22.7" height="2"/>
	<rect x="214.6" y="199.9" class="st11" width="46.9" height="2.2"/>
</g>
<path class="st11" d="M295.4,150.8h-54c-5.2,0-9.4-4.2-9.4-9.4v-35.2c0-5.2,4.2-9.4,9.4-9.4h54c5.2,0,9.4,4.2,9.4,9.4v35.2
	C304.8,146.6,300.6,150.8,295.4,150.8z"/>
<g class="st10">
	<rect x="240.1" y="110.7" class="st1" width="19.5" height="1.4"/>
	<rect x="240.1" y="113.5" class="st1" width="11.9" height="1.3"/>
	<rect x="256.8" y="113.5" class="st1" width="37.4" height="1.4"/>
	<rect x="246.3" y="116.3" class="st1" width="16.4" height="1.4"/>
	<rect x="251.5" y="119" class="st1" width="19.5" height="1.4"/>
	<rect x="272.3" y="119" class="st1" width="16.3" height="1.6"/>
	<rect x="251.5" y="121.8" class="st1" width="15" height="1.3"/>
	<rect x="268" y="121.8" class="st1" width="31.1" height="1.5"/>
	<rect x="240.1" y="125.5" class="st1" width="19.5" height="1.4"/>
	<rect x="240.1" y="128.3" class="st1" width="11.9" height="1.3"/>
	<rect x="256.8" y="128.3" class="st1" width="37.4" height="1.4"/>
	<rect x="246.3" y="131.1" class="st1" width="16.4" height="1.4"/>
	<rect x="251.5" y="133.8" class="st1" width="19.5" height="1.4"/>
	<rect x="272.3" y="133.8" class="st1" width="16.3" height="1.6"/>
	<rect x="251.5" y="136.6" class="st1" width="15" height="1.3"/>
	<rect x="268" y="136.6" class="st1" width="31.1" height="1.5"/>
</g>
<path class="st11" d="M119,201.4H65.9c-5.1,0-9.3-4.1-9.3-9.3v-34.6c0-5.1,4.1-9.3,9.3-9.3H119c5.1,0,9.3,4.1,9.3,9.3v34.6
	C128.3,197.2,124.1,201.4,119,201.4z"/>
<g class="st10">
	<rect x="64.6" y="162" class="st1" width="19.2" height="1.4"/>
	<rect x="64.6" y="164.7" class="st1" width="11.7" height="1.3"/>
	<rect x="81" y="164.7" class="st1" width="36.8" height="1.3"/>
	<rect x="70.7" y="167.4" class="st1" width="16.1" height="1.4"/>
	<rect x="75.8" y="170.1" class="st1" width="19.2" height="1.4"/>
	<rect x="96.2" y="170.1" class="st1" width="16.1" height="1.6"/>
	<rect x="75.8" y="172.9" class="st1" width="14.8" height="1.3"/>
	<rect x="92" y="172.9" class="st1" width="30.6" height="1.5"/>
	<rect x="64.6" y="176.6" class="st1" width="19.2" height="1.4"/>
	<rect x="64.6" y="179.3" class="st1" width="11.7" height="1.3"/>
	<rect x="81" y="179.3" class="st1" width="36.8" height="1.3"/>
	<rect x="70.7" y="182" class="st1" width="16.1" height="1.4"/>
	<rect x="75.8" y="184.7" class="st1" width="19.2" height="1.4"/>
	<rect x="96.2" y="184.7" class="st1" width="16.1" height="1.6"/>
	<rect x="75.8" y="187.4" class="st1" width="14.8" height="1.3"/>
	<rect x="92" y="187.4" class="st1" width="30.6" height="1.5"/>
</g>
<g class="st12">
	<path class="st1" d="M210.6,75.6v43.7c0,5.4-4.3,9.7-9.7,9.7h-46.1l-13.6,13.6L130.6,129H83.4c-5.3,0-9.7-4.3-9.7-9.7l0,0V75.6
		c0-5.3,4.3-9.7,9.7-9.7h117.5C206.2,65.9,210.6,70.3,210.6,75.6z"/>
</g>
<path class="st11" d="M83.4,60.1h117.5c5.4,0,9.7,4.3,9.7,9.7v43.7c0,5.4-4.3,9.7-9.7,9.7H83.4c-5.4,0-9.7-4.3-9.7-9.7V69.8
	C73.7,64.5,78,60.1,83.4,60.1z"/>
<polygon class="st11" points="128.4,120.7 141.2,137 156.8,121.4 "/>
<path class="st1" d="M262.1,264.3V306c-5.8,0-11.7-0.2-17.5-0.4c-43.8-1.5-87.6-3.1-131.4-4.7v-36.6c0-25.6,20.8-46.4,46.4-46.4
	h56.1C241.4,217.9,262.1,238.7,262.1,264.3z"/>
<linearGradient id="SVGID_00000180360434681446176880000009320210916226957211_" gradientUnits="userSpaceOnUse" x1="1455.7498" y1="1838.2628" x2="1436.4897" y2="1773.6927" gradientTransform="matrix(0.5543 0 0 0.5543 -660.7984 -787.1596)">
	<stop  offset="0" style="stop-color:#010101;stop-opacity:0"/>
	<stop  offset="0.95" style="stop-color:#010101"/>
</linearGradient>
<path style="fill:url(#SVGID_00000180360434681446176880000009320210916226957211_);" d="M146.6,229.8c5.9-0.6,12.1-1.8,16.4-5.8
	c1-0.9,2-2.4,1.4-3.6c-0.5-1.1-2-1.4-3.2-1.5c-9-0.7-18,1.5-26.5,4.6c-3.1,1.2-6.5,2.6-8.6,5.3c-1.5,1.8-2.5,6,1.2,6
	c1.3,0,2.8-1.4,4-1.9c1.6-0.7,3.2-1.2,4.9-1.6C139.6,230.5,143.2,230.2,146.6,229.8z"/>
<path class="st14" d="M143.7,211.9l-7.7-1.3c0,0-20.6,8.3-22.6,11.3s-3.1,25.1-3.1,25.1s-4.2,3.6-3.4,4.7c0.8,1.1,8-3.2,8-3.2
	l5.6-17.1l32.4-18.4L143.7,211.9z"/>
<linearGradient id="SVGID_00000161623808131713073870000015770468764527124868_" gradientUnits="userSpaceOnUse" x1="1384.7183" y1="1837.2715" x2="1467.8885" y2="1837.2715" gradientTransform="matrix(0.5543 0 0 0.5543 -660.7984 -787.1596)">
	<stop  offset="0" style="stop-color:#010101;stop-opacity:0"/>
	<stop  offset="0.95" style="stop-color:#010101"/>
</linearGradient>
<path style="fill:url(#SVGID_00000161623808131713073870000015770468764527124868_);" d="M143.7,211.9l-7.7-1.3
	c0,0-20.6,8.3-22.6,11.3s-3.1,25.1-3.1,25.1s-4.2,3.6-3.4,4.7c0.8,1.1,8-3.2,8-3.2l5.6-17.1l32.4-18.4L143.7,211.9z"/>
<linearGradient id="SVGID_00000016057764493533029180000014535926890131189178_" gradientUnits="userSpaceOnUse" x1="1423.1147" y1="1779.5703" x2="1444.3647" y2="1779.5703" gradientTransform="matrix(0.5543 0 0 0.5543 -660.7984 -787.1596)">
	<stop  offset="0" style="stop-color:#FFD47F"/>
	<stop  offset="0.42" style="stop-color:#EAD4D0"/>
	<stop  offset="1" style="stop-color:#FFC792"/>
</linearGradient>
<path style="fill:url(#SVGID_00000016057764493533029180000014535926890131189178_);" d="M135.4,198.5c-0.9,0.9-2.2,1.2-3.3,1.9
	c-1,0.7-2.1,1.2-3,2s-1.3,2-1.1,3.2c0,0.2,0.1,0.3,0.2,0.4c0.2,0.1,0.4,0.1,0.6,0c1-0.4,2-1,2.9-1.7c0.1-0.1,0.3-0.1,0.4-0.1
	c0.2,0.1,0.2,0.3,0.3,0.4c0.2,0.2,0.6,0.2,0.8,0l0,0c0.2-0.2,0.4-0.5,0.4-0.7c0.7-1.6,3-1.7,4.5-1.6c1.9,0.2,1.3-0.7,1.5-1
	c0.3-0.2-1.5-1.2-1.4-1.6c0.6-1.7,0.9-3.4,1-5.2c0-0.5,0-1-0.2-1.4c-1-2-1.8,1.1-2,1.8C136.8,196.2,136.4,197.6,135.4,198.5z"/>
<path class="st11" d="M137,191.7c-0.1,0.2-0.1,0.5,0,0.7s0.2,0.3,0.4,0.5c0.7,0.5,1.4,0.8,2.2,1c0.2,0.1,0.5,0.1,0.7,0.1
	c0.4-0.1,0.8-0.3,1.1-0.7c1.4-1.6,2.3-3.7,2.5-5.9c0.1-1,0.4-4.5-0.4-5.3c-0.9-0.8-2.1,1-2.7,1.8C139.1,186.3,137.7,188.9,137,191.7
	z"/>
<path class="st11" d="M141.7,184.7c-2.3,5.7-3.3,11.9-3.3,18c0,2-2.9,6.9-1.3,8.1c0.9,0.7,1,0.7,2.2,0.9c2.8,0.4,12.2,6.2,14.9,5.7
	s5.3-16.4,5.3-18.6c-0.1-6-0.6-13.2-5.3-17.6c-1.8-1.7-4.1-3.7-6.7-2.9C144.5,179.1,142.8,181.9,141.7,184.7z"/>
<linearGradient id="SVGID_00000049197003692453756610000008307032526234389151_" gradientUnits="userSpaceOnUse" x1="1451.3164" y1="1743.2971" x2="1458.7365" y2="1743.2971" gradientTransform="matrix(0.5543 0 0 0.5543 -660.7984 -787.1596)">
	<stop  offset="0" style="stop-color:#FFD47F"/>
	<stop  offset="0.42" style="stop-color:#E9C789"/>
	<stop  offset="1" style="stop-color:#FFC792"/>
</linearGradient>
<path style="fill:url(#SVGID_00000049197003692453756610000008307032526234389151_);" d="M144.3,181.9c0,0.4,0,1,0.4,1.2
	c0.2,0.1,0.3,0.1,0.5,0.1c0.7-0.2,1.4-0.7,1.7-1.3c0.7-1.1,1-2.3,0.8-3.6c-0.2-1.1-0.7-2.1-1.5-2.9c-0.2-0.2-0.5-0.3-0.7-0.3
	s-0.3,0.1-0.4,0.2c-0.5,0.4-0.9,0.8-1.2,1.3s-0.1,0.8,0,1.4C144.2,179.2,144.3,180.5,144.3,181.9z"/>
<polygon class="st1" points="110.8,197.4 120.3,211.4 131,217.6 144.2,211.5 141.3,209.7 132.5,203.4 125.3,206.9 123.2,203.1 "/>
<linearGradient id="SVGID_00000145021662310897521410000010573050113518665108_" gradientUnits="userSpaceOnUse" x1="1299.8533" y1="2115.0332" x2="1261.4532" y2="2128.9932" gradientTransform="matrix(0.5504 -6.495502e-02 6.495502e-02 0.5504 -714.0185 -873.6759)">
	<stop  offset="0" style="stop-color:#010101;stop-opacity:0"/>
	<stop  offset="0.95" style="stop-color:#010101"/>
</linearGradient>
<path style="fill:url(#SVGID_00000145021662310897521410000010573050113518665108_);" d="M125.3,206.9c0,0,5.5,7.9,5.5,8.1
	c0,0.3,10.6-4.4,10.6-4.4l-9-7.2L125.3,206.9z"/>
<linearGradient id="SVGID_00000181803092058879262490000012815986780965522838_" gradientUnits="userSpaceOnUse" x1="1453.6815" y1="1776.2551" x2="1590.7816" y2="1811.2852" gradientTransform="matrix(0.5543 0 0 0.5543 -660.7984 -787.1596)">
	<stop  offset="0" style="stop-color:#010101;stop-opacity:0"/>
	<stop  offset="0.95" style="stop-color:#010101"/>
</linearGradient>
<path style="fill:url(#SVGID_00000181803092058879262490000012815986780965522838_);" d="M149.1,186.5c0,0-1.6,9.6-1.2,10.3
	c0.4,0.7,2.5,1.6,2.5,1.6s-0.7,3.8-5.6,4.7s-3.9,4.9-3.9,4.9s2.6,1.8,7.4,1.2c4.8-0.6,7.2-0.7,8.4-2.5s1.9-8.9,1.1-11.7
	C157,192.3,149.1,186.5,149.1,186.5z"/>
<linearGradient id="SVGID_00000124129363439352818020000009444034196895894955_" gradientUnits="userSpaceOnUse" x1="1428.6453" y1="1781.4507" x2="1477.4" y2="1781.4507" gradientTransform="matrix(0.5543 0 0 0.5543 -660.7984 -787.1596)">
	<stop  offset="0" style="stop-color:#FFD47F"/>
	<stop  offset="0.42" style="stop-color:#E9C789"/>
	<stop  offset="1" style="stop-color:#FFC792"/>
</linearGradient>
<path style="fill:url(#SVGID_00000124129363439352818020000009444034196895894955_);" d="M150.5,201.1c-1.8,1.7-4.3,2.5-6.8,3
	c-2.1,0.4-4.2,0.7-6.3,0.9c-1.5,0.1-3,0.2-4.3,0.9s-2.4,2.1-2,3.5c4.9-0.3,9.8-0.6,14.7-0.9c2.6-0.2,5.2-0.4,7.7-1.2
	c1.7-0.6,3.5-1.6,4.1-3.3c0.2-0.7,0.4-1.4,0.4-2.1c0.1-1.8,0-3.6-0.1-5.4c0-1.2-0.2-2.4-0.7-3.5c-1.3-2.5-4.5-2.4-4.9,0.3
	C151.8,196.2,153.1,198.6,150.5,201.1z"/>
<path class="st11" d="M148.1,184.9l3.4,11.1c0,0,7.2-0.2,8-1.5c0.7-1.3-1.7-11.2-5.2-13.3C150.7,179.1,148.2,181.5,148.1,184.9z"/>
<path class="st14" d="M143.7,211.9l-25.5,13.6l-2,24c0,0-4,3.7-4,4.7c0,1.1,2.1,0.5,5.4-0.8c1.7-0.6,3.4-1.5,4.9-2.6l4.4-20.2
	c0,0,26.4-3.7,28.4-9.2c1.2-3.1,0.2-6.6-2.4-8.6L143.7,211.9z"/>
<linearGradient id="SVGID_00000120516687422384460800000013417819911304542906_" gradientUnits="userSpaceOnUse" x1="1276.8739" y1="2127.574" x2="1223.834" y2="2052.4539" gradientTransform="matrix(0.5504 -6.495502e-02 6.495502e-02 0.5504 -714.0185 -873.6815)">
	<stop  offset="0" style="stop-color:#010101;stop-opacity:0"/>
	<stop  offset="0.95" style="stop-color:#010101"/>
</linearGradient>
<polygon style="fill:url(#SVGID_00000120516687422384460800000013417819911304542906_);" points="120.2,211.1 130.1,217 
	121.7,204.3 111.5,198.9 "/>
<linearGradient id="SVGID_00000180335376269729511820000015327677428540052383_" gradientUnits="userSpaceOnUse" x1="1452.6519" y1="1730.7581" x2="1437.0619" y2="1737.6281" gradientTransform="matrix(0.5543 0 0 0.5543 -660.7984 -787.1596)">
	<stop  offset="5.025126e-03" style="stop-color:#FFD47F"/>
	<stop  offset="0.42" style="stop-color:#E9C789"/>
	<stop  offset="1" style="stop-color:#FFC792"/>
</linearGradient>
<path style="fill:url(#SVGID_00000180335376269729511820000015327677428540052383_);" d="M137.8,177.7c0.3,0.6,0.7,1.1,1.1,1.6
	c1.3,1.2,3.2,1.5,4.8,0.7c1.1-0.6,1.9-1.7,2.3-2.9c0.3-1.2,0.4-2.5,0.2-3.7c-0.2-1.8-1-3.4-2.3-4.6c-1-0.8-2.1-1.3-3.3-1.5
	c-0.6-0.2-1.2-0.2-1.8-0.1c-0.5,0.2-1.1,0.4-1.5,0.8c-0.5,0.3-1,0.7-1.4,1.2C133.8,171.3,136.7,175.7,137.8,177.7z"/>
<path class="st23" d="M144.6,173.2c0.2-0.2,0.4-0.4,0.3-0.7c0-0.3-0.1-0.6-0.1-0.8c0-0.1,0-0.2,0-0.2c0.1-0.2,0.5-0.1,0.7,0.1
	c0.4,0.6,0.2,1.3,0.2,2c0,0.5,0.2,1,0.6,1.4c0.9-2.3,0.6-4.9-0.7-6.9c-0.1-0.2-0.3-0.4-0.3-0.6c-0.1-0.5,0-0.9,0-1.4
	c-0.1-0.8-0.9-1.3-1.7-1.4c-0.8-0.1-1.6,0-2.4,0c-0.6,0-1.1-0.2-1.6-0.2c-0.6,0-1.2,0.1-1.7,0.2c-1.3,0.3-2.7,0.8-3.6,1.8
	c-1.1,1.2-1.4,2.9-1.5,4.6c0,0.9,0,2,0.7,2.6c0.6,0.4,1.2,0.6,1.9,0.5c0.7,0,1.4-0.3,2-0.7c0.5-0.6,0.9-1.3,1.2-2
	c0-0.1,0.1-0.1,0.2-0.2c0.1,0,0.2,0,0.2,0c0.5,0.1,1,0.2,1.6,0.3c0.5,0,1.1-0.2,1.5-0.6c0.1-0.1,0.1-0.1,0.2-0.2c0.1,0,0.1,0,0.2,0
	c0.5,0.2,1,0.4,1.5,0.7C144.2,172,144.4,172.6,144.6,173.2z"/>
<g class="st10">
	<rect x="83.8" y="69.4" class="st1" width="37.6" height="2.4"/>
	<rect x="83.8" y="74" class="st1" width="23" height="2.2"/>
	<rect x="116.1" y="74" class="st1" width="72.3" height="2.2"/>
	<rect x="95.8" y="78.6" class="st1" width="31.6" height="2.3"/>
	<rect x="105.9" y="83.2" class="st1" width="37.6" height="2.4"/>
	<rect x="146" y="83.2" class="st1" width="31.5" height="2.6"/>
	<rect x="105.9" y="87.8" class="st1" width="29.1" height="2.2"/>
	<rect x="137.7" y="87.8" class="st1" width="60" height="2.5"/>
	<rect x="83.8" y="94" class="st1" width="37.6" height="2.4"/>
	<rect x="83.8" y="98.6" class="st1" width="23" height="2.2"/>
	<rect x="116.1" y="98.6" class="st1" width="72.3" height="2.2"/>
	<rect x="95.8" y="103.2" class="st1" width="31.6" height="2.3"/>
	<rect x="105.9" y="107.8" class="st1" width="37.6" height="2.4"/>
	<rect x="146" y="107.8" class="st1" width="31.5" height="2.6"/>
	<rect x="105.9" y="112.4" class="st1" width="29.1" height="2.2"/>
	<rect x="137.7" y="112.4" class="st1" width="60" height="2.5"/>
</g>
<linearGradient id="SVGID_00000003787825236292581920000010123903251502758843_" gradientUnits="userSpaceOnUse" x1="1509.9817" y1="1823.8964" x2="1502.4597" y2="1798.6786" gradientTransform="matrix(0.5389 0.1298 -0.1298 0.5389 -401.383 -955.2454)">
	<stop  offset="0" style="stop-color:#010101;stop-opacity:0"/>
	<stop  offset="0.95" style="stop-color:#010101"/>
</linearGradient>
<path style="fill:url(#SVGID_00000003787825236292581920000010123903251502758843_);" d="M175.7,222.7c1.3,0.1,2.7,0,3.9-1.3
	c0.3-0.3,0.6-0.8,0.6-1.2c0-0.4-0.3-0.6-0.5-0.7c-1.8-0.7-3.9-0.4-5.9,0.3c-0.8,0.3-1.6,0.6-2.3,1.5c-0.5,0.6-1,2.1-0.3,2.2
	c0.3,0.1,0.7-0.4,1-0.5c0.4-0.2,0.8-0.3,1.2-0.3C174.1,222.6,174.9,222.7,175.7,222.7z"/>
<g id="f9b32178-6d95-472d-b482-6662972666de">
	
		<linearGradient id="f4b94a19-cbe0-459a-95a6-6ea3b3d72055_00000137124114846883051760000017517973832582305709_" gradientUnits="userSpaceOnUse" x1="176.45" y1="219.1805" x2="176.45" y2="213.5805">
		<stop  offset="4.723715e-02" style="stop-color:#EBEBED"/>
		<stop  offset="0.1099" style="stop-color:#F6F6F7"/>
		<stop  offset="0.2044" style="stop-color:#FDFDFD"/>
		<stop  offset="0.42" style="stop-color:#FFFFFF"/>
		<stop  offset="1" style="stop-color:#FFFFFF"/>
	</linearGradient>
	
		<path id="f4b94a19-cbe0-459a-95a6-6ea3b3d72055" style="fill:url(#f4b94a19-cbe0-459a-95a6-6ea3b3d72055_00000137124114846883051760000017517973832582305709_);" d="
		M176.4,213.6c-1.5,0-2.7,1.2-2.7,2.8s1.2,2.8,2.7,2.8s2.7-1.2,2.7-2.8l0,0l0,0C179.2,214.9,177.9,213.6,176.4,213.6z M176.4,218.1
		c-0.9,0-1.7-0.8-1.7-1.7s0.8-1.7,1.7-1.7s1.7,0.8,1.7,1.7l0,0l0,0C178.1,217.3,177.4,218.1,176.4,218.1z"/>
	
		<linearGradient id="abc0e0b3-f22e-4bee-9929-c6879640924e_00000038399520690984356250000009046428721075783598_" gradientUnits="userSpaceOnUse" x1="171.1473" y1="223.3805" x2="171.1473" y2="211.4805">
		<stop  offset="9.053898e-02" style="stop-color:#F7F7F7"/>
		<stop  offset="0.1822" style="stop-color:#FDFDFD"/>
		<stop  offset="0.42" style="stop-color:#FFFFFF"/>
		<stop  offset="1" style="stop-color:#FFFFFF"/>
	</linearGradient>
	
		<path id="abc0e0b3-f22e-4bee-9929-c6879640924e" style="fill:url(#abc0e0b3-f22e-4bee-9929-c6879640924e_00000038399520690984356250000009046428721075783598_);" d="
		M165.9,211.5h10.5V222c0,0.8-0.6,1.4-1.4,1.4l0,0h-7.8c-0.8,0-1.4-0.6-1.4-1.4l0,0L165.9,211.5L165.9,211.5z"/>
</g>
</svg>
